<mxfile host="app.diagrams.net" modified="2023-04-12T18:43:37.452Z" agent="Mozilla/5.0 (Windows NT 10.0; Win64; x64) AppleWebKit/537.36 (KHTML, like Gecko) Chrome/112.0.0.0 Safari/537.36 Edg/112.0.1722.39" etag="Hur-eqC9zdWMYYeafCW4" version="21.1.7" type="github">
  <diagram name="Página-1" id="tHIM2i9bDmpnFioX5hjq">
    <mxGraphModel dx="1100" dy="555" grid="1" gridSize="10" guides="1" tooltips="1" connect="1" arrows="1" fold="1" page="1" pageScale="1" pageWidth="827" pageHeight="1169" math="0" shadow="0">
      <root>
        <mxCell id="0" />
        <mxCell id="1" parent="0" />
        <mxCell id="phnxW7Hxmq01U_gXey0V-7" value="" style="edgeStyle=orthogonalEdgeStyle;rounded=0;orthogonalLoop=1;jettySize=auto;html=1;" edge="1" parent="1" target="phnxW7Hxmq01U_gXey0V-6">
          <mxGeometry relative="1" as="geometry">
            <mxPoint x="210" y="270" as="sourcePoint" />
          </mxGeometry>
        </mxCell>
        <mxCell id="phnxW7Hxmq01U_gXey0V-1" value="Estudiante" style="rounded=0;whiteSpace=wrap;html=1;" vertex="1" parent="1">
          <mxGeometry x="120" y="210" width="120" height="60" as="geometry" />
        </mxCell>
        <mxCell id="phnxW7Hxmq01U_gXey0V-16" value="" style="edgeStyle=orthogonalEdgeStyle;rounded=0;orthogonalLoop=1;jettySize=auto;html=1;" edge="1" parent="1" source="phnxW7Hxmq01U_gXey0V-2" target="phnxW7Hxmq01U_gXey0V-15">
          <mxGeometry relative="1" as="geometry" />
        </mxCell>
        <mxCell id="phnxW7Hxmq01U_gXey0V-2" value="Materias" style="rounded=0;whiteSpace=wrap;html=1;" vertex="1" parent="1">
          <mxGeometry x="580" y="210" width="120" height="60" as="geometry" />
        </mxCell>
        <mxCell id="phnxW7Hxmq01U_gXey0V-4" style="edgeStyle=orthogonalEdgeStyle;rounded=0;orthogonalLoop=1;jettySize=auto;html=1;" edge="1" parent="1" source="phnxW7Hxmq01U_gXey0V-3" target="phnxW7Hxmq01U_gXey0V-2">
          <mxGeometry relative="1" as="geometry" />
        </mxCell>
        <mxCell id="phnxW7Hxmq01U_gXey0V-5" style="edgeStyle=orthogonalEdgeStyle;rounded=0;orthogonalLoop=1;jettySize=auto;html=1;entryX=1;entryY=0.5;entryDx=0;entryDy=0;" edge="1" parent="1" source="phnxW7Hxmq01U_gXey0V-3" target="phnxW7Hxmq01U_gXey0V-1">
          <mxGeometry relative="1" as="geometry" />
        </mxCell>
        <mxCell id="phnxW7Hxmq01U_gXey0V-3" value="Trene" style="strokeWidth=2;html=1;shape=mxgraph.flowchart.decision;whiteSpace=wrap;" vertex="1" parent="1">
          <mxGeometry x="364" y="190" width="100" height="100" as="geometry" />
        </mxCell>
        <mxCell id="phnxW7Hxmq01U_gXey0V-6" value="Nombre" style="ellipse;whiteSpace=wrap;html=1;rounded=0;" vertex="1" parent="1">
          <mxGeometry x="210" y="310" width="110" height="80" as="geometry" />
        </mxCell>
        <mxCell id="phnxW7Hxmq01U_gXey0V-8" value="" style="edgeStyle=orthogonalEdgeStyle;rounded=0;orthogonalLoop=1;jettySize=auto;html=1;" edge="1" parent="1" target="phnxW7Hxmq01U_gXey0V-9">
          <mxGeometry relative="1" as="geometry">
            <mxPoint x="160" y="270" as="sourcePoint" />
          </mxGeometry>
        </mxCell>
        <mxCell id="phnxW7Hxmq01U_gXey0V-9" value="Matrícula" style="ellipse;whiteSpace=wrap;html=1;rounded=0;" vertex="1" parent="1">
          <mxGeometry x="50" y="310" width="110" height="80" as="geometry" />
        </mxCell>
        <mxCell id="phnxW7Hxmq01U_gXey0V-10" value="" style="edgeStyle=orthogonalEdgeStyle;rounded=0;orthogonalLoop=1;jettySize=auto;html=1;" edge="1" parent="1" target="phnxW7Hxmq01U_gXey0V-11">
          <mxGeometry relative="1" as="geometry">
            <mxPoint x="665" y="270" as="sourcePoint" />
          </mxGeometry>
        </mxCell>
        <mxCell id="phnxW7Hxmq01U_gXey0V-11" value="Nombre" style="ellipse;whiteSpace=wrap;html=1;rounded=0;" vertex="1" parent="1">
          <mxGeometry x="665" y="310" width="110" height="80" as="geometry" />
        </mxCell>
        <mxCell id="phnxW7Hxmq01U_gXey0V-12" value="" style="edgeStyle=orthogonalEdgeStyle;rounded=0;orthogonalLoop=1;jettySize=auto;html=1;" edge="1" parent="1" target="phnxW7Hxmq01U_gXey0V-13">
          <mxGeometry relative="1" as="geometry">
            <mxPoint x="615" y="270" as="sourcePoint" />
          </mxGeometry>
        </mxCell>
        <mxCell id="phnxW7Hxmq01U_gXey0V-13" value="Matrícula" style="ellipse;whiteSpace=wrap;html=1;rounded=0;" vertex="1" parent="1">
          <mxGeometry x="505" y="310" width="110" height="80" as="geometry" />
        </mxCell>
        <mxCell id="phnxW7Hxmq01U_gXey0V-18" value="" style="edgeStyle=orthogonalEdgeStyle;rounded=0;orthogonalLoop=1;jettySize=auto;html=1;" edge="1" parent="1" source="phnxW7Hxmq01U_gXey0V-15" target="phnxW7Hxmq01U_gXey0V-17">
          <mxGeometry relative="1" as="geometry" />
        </mxCell>
        <mxCell id="phnxW7Hxmq01U_gXey0V-15" value="Imparte" style="rhombus;whiteSpace=wrap;html=1;rounded=0;" vertex="1" parent="1">
          <mxGeometry x="600" y="60" width="80" height="80" as="geometry" />
        </mxCell>
        <mxCell id="phnxW7Hxmq01U_gXey0V-17" value="Docente" style="whiteSpace=wrap;html=1;rounded=0;" vertex="1" parent="1">
          <mxGeometry x="740" y="70" width="120" height="60" as="geometry" />
        </mxCell>
      </root>
    </mxGraphModel>
  </diagram>
</mxfile>
